<?xml version="1.0" encoding="UTF-8" standalone="no"?>
<!DOCTYPE svg PUBLIC "-//W3C//DTD SVG 1.1//EN"
"http://www.w3.org/Graphics/SVG/1.1/DTD/svg11.dtd">
<svg viewBox="0 0 220 1043" version="1.1" xmlns="http://www.w3.org/2000/svg" xmlns:xlink="http://www.w3.org/1999/xlink">
<defs>
<style type="text/css"><![CDATA[
.g0{
}
.g1{
fill: #FFFFFF;
}
.g2{
fill: #CCCCCC;
}
.g3{
fill: #EEEEEE;
}
]]></style>
</defs>
<path d="M7.3,3.1H209.6V48.5H7.3V3.1Z" class="g0"/>
<path d="M7.3,3.1H209.6v.6H7.3V3.1Z" class="g0"/>
<path d="M7.3,47.9H209.6v.6H7.3v-.6Z" class="g0"/>
<path d="M7.3,3.1H8V48.5H7.3V3.1Z" class="g0"/>
<path d="M208.9,3.1h.7V48.5h-.7V3.1Z" class="g0"/>
<path d="M9.4,5.1H207.6V46.5H9.4V5.1Z" class="g1"/>
<path d="M9.4,5.1H207.6v.7H9.4V5.1Z" class="g0"/>
<path d="M9.4,45.8H207.6v.7H9.4v-.7Z" class="g0"/>
<path d="M9.4,5.1h.7V46.5H9.4V5.1Z" class="g0"/>
<path d="M206.9,5.1h.7V46.5h-.7V5.1Z" class="g0"/>
<path d="M9.4,151.7H213v.7H9.4v-.7Z" class="g2"/>
<path fill-rule="evenodd" d="M10.7,231.8H206.2c1.9,0,3.4,1.5,3.4,3.4v224c0,1.8,-1.5,3.4,-3.4,3.4H10.7c-1.8,0,-3.4,-1.6,-3.4,-3.4v-224c0,-1.9,1.6,-3.4,3.4,-3.4Zm0,.7H206.2c1.5,0,2.7,1.2,2.7,2.7v224c0,1.5,-1.2,2.7,-2.7,2.7H10.7C9.2,461.9,8,460.7,8,459.2v-224c0,-1.5,1.2,-2.7,2.7,-2.7Z" class="g0"/>
<path fill-rule="evenodd" d="M10.7,462.6H206.2c1.9,0,3.4,1.5,3.4,3.4V614.6c0,1.9,-1.5,3.4,-3.4,3.4H10.7c-1.8,0,-3.4,-1.5,-3.4,-3.4V466c0,-1.9,1.6,-3.4,3.4,-3.4Zm0,.6H206.2c1.5,0,2.7,1.3,2.7,2.8V614.6c0,1.5,-1.2,2.7,-2.7,2.7H10.7C9.2,617.3,8,616.1,8,614.6V466c0,-1.5,1.2,-2.8,2.7,-2.8Z" class="g0"/>
<path d="M9.4,466H58.2v14.9H9.4V466Z" class="g0"/>
<path d="M59.6,466h42.8v14.9H59.6V466Z" class="g0"/>
<path d="M103.7,466h48.2v14.9H103.7V466Z" class="g0"/>
<path d="M153.3,466h54.3v14.9H153.3V466Z" class="g0"/>
<path d="M9.4,562.3H207.6v.7H9.4v-.7Z" class="g0"/>
<path d="M9.4,579.3H58.2v.7H9.4v-.7Z" class="g0"/>
<path d="M59.6,579.3h42.8v.7H59.6v-.7Z" class="g0"/>
<path d="M103.7,579.3h48.2v.7H103.7v-.7Z" class="g0"/>
<path d="M153.3,579.3h54.3v.7H153.3v-.7Z" class="g0"/>
<path d="M9.4,596.3H151.9v.7H9.4v-.7Z" class="g0"/>
<path d="M153.3,596.3h54.3v.7H153.3v-.7Z" class="g0"/>
<path d="M9.4,615.3H207.6v.7H9.4v-.7Z" class="g0"/>
<path fill-rule="evenodd" d="M10.7,618H206.2c1.9,0,3.4,1.5,3.4,3.4v63.1c0,1.9,-1.5,3.4,-3.4,3.4H10.7c-1.8,0,-3.4,-1.5,-3.4,-3.4V621.4c0,-1.9,1.6,-3.4,3.4,-3.4Zm0,.7H206.2c1.5,0,2.7,1.2,2.7,2.7v63.1c0,1.5,-1.2,2.7,-2.7,2.7H10.7C9.2,687.2,8,686,8,684.5V621.4c0,-1.5,1.2,-2.7,2.7,-2.7Z" class="g0"/>
<path d="M9.4,635H130.9v.6H9.4V635Z" class="g0"/>
<path d="M132.2,635h75.4v.6H132.2V635Z" class="g0"/>
<path d="M9.4,651.9H130.9v.7H9.4v-.7Z" class="g0"/>
<path d="M132.2,651.9h75.4v.7H132.2v-.7Z" class="g0"/>
<path d="M9.4,668.9H130.9v.7H9.4v-.7Z" class="g0"/>
<path d="M132.2,668.9h75.4v.7H132.2v-.7Z" class="g0"/>
<path fill-rule="evenodd" d="M10.7,848.8H196c1.9,0,3.4,1.5,3.4,3.4V1030c0,1.9,-1.5,3.4,-3.4,3.4H10.7c-1.8,0,-3.4,-1.5,-3.4,-3.4V852.2c0,-1.9,1.6,-3.4,3.4,-3.4Zm0,.6H196c1.5,0,2.7,1.3,2.7,2.8V1030c0,1.5,-1.2,2.7,-2.7,2.7H10.7C9.2,1032.7,8,1031.5,8,1030V852.2c0,-1.5,1.2,-2.8,2.7,-2.8Z" class="g0"/>
<path d="M9.4,850.8h188v14.9H9.4V850.8Z" class="g3"/>
<path d="M9.4,884.1H56.9v.6H9.4v-.6Z" class="g0"/>
<path d="M58.2,884.1H196v.6H58.2v-.6Z" class="g0"/>
<path d="M9.4,903.1H56.9v.6H9.4v-.6Z" class="g0"/>
<path d="M58.2,903.1H196v.6H58.2v-.6Z" class="g0"/>
<path d="M9.4,922.1H56.9v.7H9.4v-.7Z" class="g0"/>
<path d="M58.2,922.1H196v.7H58.2v-.7Z" class="g0"/>
<path d="M9.4,941.1H56.9v.7H9.4v-.7Z" class="g0"/>
<path d="M58.2,941.1H196v.7H58.2v-.7Z" class="g0"/>
<path d="M9.4,960.1H56.9v.7H9.4v-.7Z" class="g0"/>
<path d="M58.2,960.1H196v.7H58.2v-.7Z" class="g0"/>
<image preserveAspectRatio="none" x="36" y="76" width="151" height="57" xlink:href="img/1.png"/>
<image preserveAspectRatio="none" x="19" y="709" width="170" height="81" xlink:href="img/2.png"/>
</svg>